<?xml version="1.0" encoding="iso-8859-1"?>
<!-- Uploaded to: SVG Repo, www.svgrepo.com, Generator: SVG Repo Mixer Tools -->
<svg height="800px" width="800px" version="1.1" id="Layer_1" xmlns="http://www.w3.org/2000/svg" xmlns:xlink="http://www.w3.org/1999/xlink" 
	 viewBox="0 0 512 512" xml:space="preserve">
<g>
	<g>
		<g>
			<path style="fill:#231F20;" d="M333.376,153.942v-38.729c0-10.679-8.658-19.337-19.337-19.337h-58.038
				c-3.532,0-6.831,0.962-9.682,2.616V19.337C246.319,8.658,237.661,0,226.982,0c-10.68,0-19.338,8.658-19.338,19.337v88.509h-9.682
				c-10.679,0-19.337,8.658-19.337,19.337v26.757c-26.964,0.688-48.693,22.827-48.693,49.962v87.186v170.931
				c0,27.56,22.422,49.981,49.982,49.981h152.172c27.56,0,49.982-22.421,49.982-49.981V291.089v-87.186
				C382.068,176.769,360.341,154.63,333.376,153.942z M275.338,134.55h19.363v19.358h-19.363V134.55z M217.301,146.521h19.363v7.387
				h-19.363V146.521z M343.395,462.019h-0.001c0,6.234-5.073,11.306-11.307,11.306H179.915c-6.234,0-11.306-5.072-11.306-11.306
				V310.426h174.785V462.019z M343.395,271.751H168.609v-67.849h-0.001c0-6.241,5.072-11.319,11.306-11.319h17.974
				c0.026,0,0.049,0.004,0.075,0.004h58.038h58.038c0.026,0,0.049-0.004,0.075-0.004h17.974c6.234,0,11.307,5.078,11.307,11.319
				V271.751z"/>
			<path style="fill:#231F20;" d="M302.095,212.83h-92.188c-10.679,0-19.338,8.658-19.338,19.337s8.658,19.338,19.338,19.338h92.188
				c10.679,0,19.338-8.658,19.338-19.338S312.774,212.83,302.095,212.83z"/>
			<circle style="fill:#231F20;" cx="221.505" cy="357.383" r="15.155"/>
			<circle style="fill:#231F20;" cx="290.488" cy="357.383" r="15.155"/>
			<circle style="fill:#231F20;" cx="221.505" cy="426.366" r="15.155"/>
			<circle style="fill:#231F20;" cx="290.488" cy="426.366" r="15.155"/>
		</g>
	</g>
</g>
</svg>